# xmcd
# 
# Track frame offsets:
#     150
#     23176
#     38242
#     57029
# 
# Disc length: 985
# 
# Revision: 0
# Processed by: cddbd v1.5.2PL0 Copyright (c) Steve Scherf et al.
# Submitted via: BonkEnc v1.0.8
# 
DISCID=2903d704
DTITLE=Sourvein - Ghetto Angel
DYEAR=0
DGENRE=
TTITLE0=nightwing
TTITLE1=septic werewolves
TTITLE2=doldrums...
TTITLE3=d.i.l.l.i.g.a.f.
EXTD=
EXTT0=
EXTT1=
EXTT2=
EXTT3=
PLAYORDER=
